<!DOCTYPE svg PUBLIC "-//W3C//DTD SVG 1.1//EN" "http://www.w3.org/Graphics/SVG/1.1/DTD/svg11.dtd">
<!-- Uploaded to: SVG Repo, www.svgrepo.com, Transformed by: SVG Repo Mixer Tools -->
<svg fill="#fbff00" height="800px" width="800px" version="1.1" id="Layer_1" xmlns="http://www.w3.org/2000/svg" xmlns:xlink="http://www.w3.org/1999/xlink" viewBox="0 0 512 512" xml:space="preserve" stroke="#fbff00">
<g id="SVGRepo_bgCarrier" stroke-width="0"/>
<g id="SVGRepo_tracerCarrier" stroke-linecap="round" stroke-linejoin="round"/>
<g id="SVGRepo_iconCarrier"> <g> <g> <path d="M474.513,340.405c-7.451,2.592-13.336,4.638-26.517,4.638s-19.065-2.047-26.517-4.638 c-8.749-3.043-18.666-6.492-37.487-6.492c-18.822,0-28.737,3.449-37.485,6.492c-7.451,2.592-13.335,4.638-26.516,4.638 c-13.18,0-19.064-2.047-26.515-4.638c-8.749-3.043-18.665-6.492-37.484-6.492s-28.735,3.449-37.484,6.492 c-7.45,2.592-13.334,4.638-26.513,4.638s-19.064-2.047-26.515-4.638c-8.749-3.043-18.664-6.492-37.484-6.492 s-28.735,3.449-37.484,6.492c-7.451,2.591-13.335,4.638-26.515,4.638c-13.178,0-19.063-2.047-26.513-4.638 c-8.749-3.043-18.664-6.492-37.484-6.492v33.391c13.178,0,19.063,2.047,26.513,4.638c8.749,3.043,18.664,6.492,37.484,6.492 c18.82,0,28.737-3.449,37.485-6.492c7.451-2.592,13.335-4.638,26.515-4.638c13.18,0,19.064,2.047,26.515,4.638 c8.749,3.043,18.664,6.492,37.484,6.492c18.819,0,28.734-3.449,37.483-6.492c7.45-2.592,13.334-4.638,26.513-4.638 c13.178,0,19.064,2.047,26.515,4.638c8.749,3.043,18.665,6.492,37.485,6.492s28.737-3.449,37.485-6.492 c7.451-2.592,13.335-4.638,26.516-4.638c13.181,0,19.066,2.047,26.517,4.638c8.748,3.043,18.666,6.492,37.486,6.492 c18.822,0,28.738-3.449,37.487-6.492c7.451-2.591,13.336-4.638,26.517-4.638v-33.391 C493.178,333.912,483.262,337.362,474.513,340.405z"/> </g> </g> <g> <g> <path d="M47.949,261.689v47.002c0.167,0.059,0.342,0.119,0.506,0.176c6.148,2.139,8.004,2.785,15.541,2.785 c7.539,0,9.394-0.646,15.546-2.785c10.125-3.522,23.992-8.346,48.453-8.346s38.329,4.823,48.455,8.346 c6.15,2.139,8.006,2.785,15.544,2.785c7.536,0,9.392-0.646,15.544-2.786c10.125-3.522,23.992-8.344,48.453-8.344 s38.329,4.823,48.455,8.346c6.15,2.139,8.006,2.785,15.545,2.785c7.539,0,9.395-0.646,15.546-2.785 c10.125-3.522,23.993-8.346,48.455-8.346c24.462,0,38.33,4.823,48.457,8.346c6.151,2.139,8.007,2.785,15.547,2.785 c7.541,0,9.396-0.646,15.548-2.786c0.165-0.058,0.339-0.118,0.508-0.176v-47H47.949z"/> </g> </g> <g> <g> <path d="M447.996,411.826c-24.462,0-38.33-4.823-48.456-8.346c-6.151-2.139-8.007-2.785-15.548-2.785 c-7.539,0-9.395,0.646-15.546,2.785c-10.125,3.522-23.993,8.346-48.455,8.346s-38.329-4.823-48.455-8.346 c-6.15-2.139-8.006-2.785-15.544-2.785s-9.393,0.646-15.544,2.786c-10.125,3.522-23.992,8.345-48.452,8.345 c-24.461,0-38.328-4.823-48.455-8.346c-6.15-2.139-8.006-2.785-15.544-2.785c-7.538,0-9.394,0.646-15.545,2.785 c-10.126,3.523-23.993,8.346-48.455,8.346c-18.569,0-31.024-2.779-40.381-5.659v32.62c0,32.324,26.297,58.621,58.62,58.621h347.53 c32.323,0,58.62-26.297,58.62-58.621v-32.622C479.027,409.045,466.569,411.826,447.996,411.826z"/> </g> </g> <g> <g> <path d="M259.425,14.593h-6.849c-121.122,0-220.562,94.543-228.44,213.707h463.728C479.987,109.136,380.547,14.593,259.425,14.593 z M197.638,114.489c-9.22,0-16.696-7.475-16.696-16.696c0-9.222,7.474-16.696,16.696-16.696c9.22,0,16.696,7.475,16.696,16.696 S206.858,114.489,197.638,114.489z M256,114.489c-9.22,0-16.696-7.475-16.696-16.696c0-9.222,7.475-16.696,16.696-16.696 s16.696,7.475,16.696,16.696S265.22,114.489,256,114.489z M314.362,114.489c-9.22,0-16.696-7.475-16.696-16.696 c0-9.222,7.475-16.696,16.696-16.696s16.696,7.475,16.696,16.696S323.583,114.489,314.362,114.489z"/> </g> </g> </g>
</svg>